<svg width="48" height="48" viewBox="0 0 48 48" fill="none" xmlns="http://www.w3.org/2000/svg">
<path fill-rule="evenodd" clip-rule="evenodd" d="M9.70583 4.65546C7.38139 8.43198 6 13.1563 6 18.2824C6 30.6638 14.0589 40.701 24 40.701C33.9411 40.701 42 30.6638 42 18.2824C42 13.1563 40.6186 8.43198 38.2942 4.65546L41.7311 4.07018e-05C45.6251 5.09742 48 11.8799 48 19.3252C48 35.1618 37.2548 48 24 48C10.7452 48 0 35.1618 0 19.3252C0 11.8799 2.37488 5.09742 6.26892 4.04788e-05L9.70583 4.65546ZM20 44C20 44.5523 19.5523 45 19 45C18.4477 45 18 44.5523 18 44C18 43.4477 18.4477 43 19 43C19.5523 43 20 43.4477 20 44ZM29 45C29.5523 45 30 44.5523 30 44C30 43.4477 29.5523 43 29 43C28.4477 43 28 43.4477 28 44C28 44.5523 28.4477 45 29 45ZM37 40C37 40.5523 36.5523 41 36 41C35.4477 41 35 40.5523 35 40C35 39.4477 35.4477 39 36 39C36.5523 39 37 39.4477 37 40ZM12 41C12.5523 41 13 40.5523 13 40C13 39.4477 12.5523 39 12 39C11.4477 39 11 39.4477 11 40C11 40.5523 11.4477 41 12 41Z" fill="#5B5858"/>
</svg>
